<?xml version="1.0" encoding="UTF-8" standalone="no"?>
<svg width="22px" height="22px" viewBox="0 0 22 22" version="1.1" xmlns="http://www.w3.org/2000/svg" xmlns:xlink="http://www.w3.org/1999/xlink" xmlns:sketch="http://www.bohemiancoding.com/sketch/ns">
    <!-- Generator: Sketch 3.3.3 (12072) - http://www.bohemiancoding.com/sketch -->
    <title>plus-icon</title>
    <desc>Created with Sketch.</desc>
    <defs></defs>
    <g id="Page-1" stroke="none" stroke-width="1" fill="none" fill-rule="evenodd" sketch:type="MSPage">
        <g id="Artboard-3" sketch:type="MSArtboardGroup" transform="translate(-79.000000, -82.000000)" fill="#FFFFFF">
            <path d="M100.812,91.717 L100.812,94.095 C100.812,94.899 100.16,95.552 99.355,95.552 L94.017,95.552 C93.208,95.552 92.552,96.207 92.552,97.016 L92.552,102.355 C92.552,103.16 91.9,103.812 91.095,103.812 L88.717,103.812 C87.913,103.812 87.26,103.16 87.26,102.355 L87.26,97.016 C87.26,96.207 86.604,95.552 85.796,95.552 L80.457,95.552 C79.652,95.552 79,94.899 79,94.095 L79,91.717 C79,90.912 79.652,90.26 80.457,90.26 L85.796,90.26 C86.604,90.26 87.26,89.604 87.26,88.795 L87.26,83.457 C87.26,82.652 87.913,82 88.717,82 L91.095,82 C91.9,82 92.552,82.652 92.552,83.457 L92.552,88.795 C92.552,89.604 93.208,90.26 94.017,90.26 L99.355,90.26 C100.16,90.26 100.812,90.912 100.812,91.717" id="plus-icon" sketch:type="MSShapeGroup"></path>
        </g>
    </g>
</svg>